<svg width="160" height="160" viewBox="0 0 160 160" fill="none" xmlns="http://www.w3.org/2000/svg">
<g clip-path="url(#clip0_2103_44456)">
<path d="M18.7522 0.49707H69.6043C72.0065 0.500981 74.3843 0.978159 76.602 1.90134C78.8197 2.82452 80.8337 4.17561 82.5291 5.87742C84.2244 7.57923 85.5679 9.5984 86.4826 11.8196C87.3973 14.0407 87.8655 16.4204 87.8602 18.8225V29.2474C87.8707 31.5894 87.4191 33.9105 86.5313 36.0777C85.6435 38.2449 84.3369 40.2158 82.6864 41.8774C81.0359 43.539 79.0738 44.8587 76.9126 45.761C74.7513 46.6633 72.4333 47.1304 70.0913 47.1356H68.859C68.2333 47.1355 67.6326 47.3813 67.1864 47.82C66.7402 48.2588 66.4843 48.8553 66.4739 49.4809L66.3348 56.1791C66.3274 56.5926 66.1984 56.9949 65.964 57.3357C65.7295 57.6765 65.3999 57.9407 65.0163 58.0954C64.6327 58.2501 64.212 58.2885 63.8067 58.2057C63.4015 58.123 63.0295 57.9227 62.7373 57.63L53.4155 48.2188C53.0767 47.8752 52.6728 47.6025 52.2275 47.4165C51.7822 47.2305 51.3043 47.135 50.8217 47.1356H18.7522C16.3462 47.1304 13.9649 46.6507 11.7445 45.7239C9.5242 44.7972 7.50846 43.4416 5.81272 41.7348C4.11698 40.0279 2.77455 38.0034 1.86227 35.7771C0.950001 33.5508 0.485806 31.1664 0.496267 28.7604V18.8225C0.491041 16.4204 0.959172 14.0407 1.87391 11.8196C2.78865 9.5984 4.13207 7.57923 5.82742 5.87742C7.52277 4.17561 9.53682 2.82452 11.7545 1.90134C13.9722 0.978159 16.35 0.500981 18.7522 0.49707Z" fill="white" stroke="black" stroke-miterlimit="10"/>
<path d="M28.9579 133.476C34.2747 120.11 42.5331 103.374 50.9703 105.004C57.3504 106.216 67.7057 107.409 75.497 109.486C85.2362 112.08 90.6324 106.405 99.189 113.461C107.974 120.696 102.17 146.077 100.888 159.553C100.888 159.503 22.2399 150.39 28.9579 133.476Z" fill="#FF8000"/>
<path d="M74.2852 31.3938V46.6882C78.0522 45.4536 81.3314 43.0576 83.6523 39.844C85.9733 36.6303 87.2168 32.7641 87.2044 28.8V17.8683C87.2145 15.3754 86.7386 12.9045 85.8032 10.5938C82.2753 12.7977 79.3666 15.8636 77.3515 19.5027C75.3364 23.1417 74.2811 27.234 74.2852 31.3938V31.3938Z" fill="#DCDCDC"/>
<path d="M18.7522 0.49707H69.6043C72.0065 0.500981 74.3843 0.978159 76.602 1.90134C78.8197 2.82452 80.8337 4.17561 82.5291 5.87742C84.2244 7.57923 85.5679 9.5984 86.4826 11.8196C87.3973 14.0407 87.8655 16.4204 87.8602 18.8225V29.2474C87.8707 31.5894 87.4191 33.9105 86.5313 36.0777C85.6435 38.2449 84.3369 40.2158 82.6864 41.8774C81.0359 43.539 79.0738 44.8587 76.9126 45.761C74.7513 46.6633 72.4333 47.1304 70.0913 47.1356H68.859C68.2333 47.1355 67.6326 47.3813 67.1864 47.82C66.7402 48.2588 66.4843 48.8553 66.4739 49.4809L66.3348 56.1791C66.3274 56.5926 66.1984 56.9949 65.964 57.3357C65.7295 57.6765 65.3999 57.9407 65.0163 58.0954C64.6327 58.2501 64.212 58.2885 63.8067 58.2057C63.4015 58.123 63.0295 57.9227 62.7373 57.63L53.4155 48.2188C53.0767 47.8752 52.6728 47.6025 52.2275 47.4165C51.7822 47.2305 51.3043 47.135 50.8217 47.1356H18.7522C16.3462 47.1304 13.9649 46.6507 11.7445 45.7239C9.5242 44.7972 7.50846 43.4416 5.81272 41.7348C4.11698 40.0279 2.77455 38.0034 1.86227 35.7771C0.950001 33.5508 0.485806 31.1664 0.496267 28.7604V18.8225C0.491041 16.4204 0.959172 14.0407 1.87391 11.8196C2.78865 9.5984 4.13207 7.57923 5.82742 5.87742C7.52277 4.17561 9.53682 2.82452 11.7545 1.90134C13.9722 0.978159 16.35 0.500981 18.7522 0.49707Z" stroke="black" stroke-miterlimit="10"/>
<path d="M135.571 8.83496H103.909C100.759 8.84018 97.6412 9.46594 94.7331 10.6765C91.825 11.887 89.184 13.6587 86.9608 15.8902C84.7376 18.1217 82.9758 20.7693 81.7761 23.6819C80.5764 26.5944 79.9623 29.7148 79.9688 32.8648V63.4138C79.9665 63.888 80.105 64.3522 80.3668 64.7476C80.6285 65.1431 81.0018 65.4519 81.4392 65.6349C81.8766 65.818 82.3586 65.8671 82.8239 65.776C83.2893 65.6849 83.7172 65.4577 84.0533 65.1232L90.8409 58.3753C91.8026 57.4278 93.0982 56.896 94.4483 56.8946H135.581C138.73 56.8881 141.847 56.2614 144.754 55.0502C147.661 53.8391 150.301 52.0672 152.523 49.8359C154.745 47.6045 156.506 44.9573 157.705 42.0454C158.904 39.1335 159.518 36.0139 159.512 32.8648V32.8648C159.518 29.7148 158.904 26.5944 157.704 23.6819C156.505 20.7693 154.743 18.1217 152.52 15.8902C150.296 13.6587 147.655 11.887 144.747 10.6765C141.839 9.46594 138.721 8.84018 135.571 8.83496V8.83496Z" fill="white" stroke="black" stroke-miterlimit="10"/>
<path d="M89.4826 116.84C83.5198 112.864 70.2826 108.134 65.4031 109.476H64.6378C59.7583 108.134 46.5211 112.815 40.5484 116.84C33.2043 121.808 27.331 131.647 27.5695 140.522C27.7484 147.538 29.1596 159.503 29.1596 159.503H100.941C100.941 159.503 102.352 147.577 102.541 140.522C102.73 131.647 96.8465 121.779 89.4826 116.84Z" fill="#FF8000"/>
<path d="M47.6211 113.133C49.3829 116.234 51.9316 118.816 55.0099 120.619C58.0882 122.421 61.5874 123.379 65.1544 123.398C68.7215 123.416 72.2302 122.493 75.3267 120.722C78.4232 118.951 80.998 116.395 82.7913 113.312C76.5006 110.599 68.8782 108.531 65.4199 109.476H64.6348C61.2062 108.551 53.8223 110.509 47.6211 113.133Z" fill="#E44C02"/>
<path d="M89.4826 116.84C83.5198 112.864 70.2826 108.134 65.4031 109.476H64.6378C59.7583 108.134 46.5211 112.815 40.5484 116.84C33.2043 121.808 27.331 131.647 27.5695 140.522C27.7484 147.538 29.1596 159.503 29.1596 159.503H100.941C100.941 159.503 102.352 147.577 102.541 140.522C102.73 131.647 96.8465 121.779 89.4826 116.84Z" stroke="black" stroke-miterlimit="10"/>
<path d="M65.2618 116.929C60.2248 116.922 55.3687 115.051 51.6292 111.677C47.8896 108.302 45.5312 103.663 45.0084 98.6534L44.422 93.1279C44.1169 90.3067 44.4084 87.4528 45.2775 84.7515C46.1466 82.0502 47.5739 79.5618 49.4668 77.4477C51.3597 75.3336 53.6759 73.6412 56.2652 72.4801C58.8545 71.319 61.6589 70.7152 64.4966 70.708H66.0966C68.959 70.7148 71.7874 71.3286 74.3951 72.5088C77.0029 73.689 79.3307 75.4089 81.225 77.5548C83.1193 79.7008 84.5369 82.2241 85.3844 84.9582C86.2318 87.6922 86.4898 90.575 86.1413 93.4161L85.4754 98.9416C84.8875 103.892 82.5062 108.456 78.7816 111.771C75.0571 115.085 70.2474 116.92 65.2618 116.929Z" fill="#F9C9B7" stroke="black" stroke-miterlimit="10"/>
</g>
<defs>
<clipPath id="clip0_2103_44456">
<rect width="160" height="160" fill="white"/>
</clipPath>
</defs>
</svg>
