<svg width="160" height="160" viewBox="0 0 160 160" fill="none" xmlns="http://www.w3.org/2000/svg">
<path d="M126.778 71.6632C132.987 73.1727 136.675 72.8432 139.865 70.4619C142.246 68.6654 140.088 65.1467 136.388 63.6585C130.297 61.1391 118.03 54.2187 107.506 51.0295C105.948 49.1708 103.9 47.786 101.595 47.0325C99.5808 46.5965 97.4967 46.5965 95.4825 47.0325V46.9474C88.9909 46.9049 82.4957 46.8305 75.9969 46.7242C70.6073 46.6498 65.122 46.5541 59.9556 45.0021C52.5143 42.7591 46.253 37.6458 40.2468 32.6602L26.9694 52.3796L17.7209 65.1361C25.8671 69.9094 33.0724 76.1312 38.9818 83.4948L41.5012 86.0568L42.6706 88.4486C41.5225 86.7478 40.2787 85.1 38.9818 83.4948L37.5892 82.0704C36.6494 83.8282 36.171 85.7957 36.1989 87.7888C36.2267 89.7819 36.76 91.7354 37.7487 93.4662C39.7877 96.9132 42.9026 99.5949 46.6144 101.099C50.306 102.58 54.1896 103.529 58.1484 103.916L59.3284 104.065L73.9559 117.757L74.1153 117.618V118.012C76.7198 118.947 78.0592 117.161 78.6545 114.164H78.7502L78.6014 114.461C79.218 117.172 83.4701 118.958 86.2128 118.48C87.4126 118.208 88.5402 117.682 89.5195 116.938C90.4988 116.193 91.307 115.247 91.8894 114.164V114.164C92.4109 115.568 93.3863 116.759 94.6611 117.547C95.9359 118.334 97.4371 118.674 98.9268 118.511C100.33 118.202 101.648 117.587 102.787 116.711C103.926 115.834 104.859 114.718 105.518 113.441C106.745 111.055 107.558 108.477 107.92 105.819L108.143 105.702C110.727 114.089 118.678 121.297 127.034 123.975L142.171 84.1964C136.801 80.3222 131.661 76.1373 126.778 71.6632V71.6632ZM110.174 54.1336L110.099 54.0379L125.216 70.2387C119.857 65.2035 114.832 59.8236 110.174 54.1336V54.1336Z" fill="#9C5940"/>
<path d="M28.2463 50.4559C32.4985 44.1733 44.0219 37.221 50.836 40.7184L40.2056 32.9795L28.2463 50.4559Z" fill="#854931"/>
<path d="M76.7424 60.9057C88.4359 60.0233 104.18 72.7692 105.721 83.0595C105.721 83.0595 104.339 74.0555 101.756 69.0592C99.1726 64.0629 98.5667 61.2884 94.5378 59.4918C90.5088 57.6953 83.6203 59.4918 83.6203 59.4918L76.7424 60.9057Z" fill="#854931"/>
<path d="M108.76 52.4229C113.15 58.1101 125.886 67.6881 140.875 68.1984L140.619 69.6654L138.015 71.6001L134.826 72.5994L131.084 72.3868L128.044 71.9616L126.268 71.1962L116.382 61.2674L108.76 52.4229Z" fill="#854931"/>
<path d="M73.957 117.757C73.451 116.82 72.7896 115.975 72.001 115.259C68.3016 111.443 64.8786 108.052 61.2005 104.278C63.7018 104.578 66.2183 104.734 68.7375 104.746C69.9555 104.645 71.1169 104.188 72.0771 103.432C73.0374 102.676 73.754 101.654 74.1377 100.493C74.5098 98.7394 74.8074 96.7941 70.6828 95.6992C61.7001 93.286 51.6331 90.8092 42.661 88.4386C38.2059 81.8756 32.7584 76.0444 26.5134 71.1535L26.4496 71.0472H26.3965C23.6326 68.9211 28.6608 72.2272 25.6311 70.4519L24.2279 70.6645C22.9702 70.3934 21.6692 70.3934 20.4116 70.6645C19.4108 70.8746 18.4961 71.3799 17.7855 72.1152C17.0749 72.8504 16.601 73.7818 16.4251 74.7891C16.2338 77.1809 18.3067 79.1263 20.3478 80.3807C24.9614 83.2297 30.8719 85.2282 36.2934 84.9624L37.686 83.9632L37.5797 82.0603C36.6398 83.8181 36.1614 85.7857 36.1893 87.7788C36.2172 89.7719 36.7505 91.7253 37.7391 93.4561C38.701 95.1804 39.9774 96.7092 41.5023 97.9634C39.727 98.6438 39.1636 101.153 39.929 102.864C40.6944 104.576 42.4059 105.904 44.0217 107.031C51.665 112.346 59.3933 117.725 67.9827 121.318C68.9821 121.8 70.0648 122.085 71.1718 122.158C71.7147 122.227 72.2661 122.141 72.7618 121.909C73.2575 121.677 73.6773 121.31 73.9724 120.849C74.2674 120.388 74.4256 119.853 74.4285 119.305C74.4314 118.758 74.279 118.221 73.9889 117.757H73.957Z" fill="#FBCBB9"/>
<path d="M142.12 84.1969C130.213 75.6037 119.475 65.498 110.175 54.134C107.773 51.2 105.222 48.0216 101.575 47.0329C99.1091 46.3632 96.4834 46.8097 93.964 47.2562C87.2307 48.4487 80.583 50.0822 74.0638 52.1462C71.2149 53.0604 68.8018 55.027 69.7053 57.9397C70.7684 61.1289 74.3402 61.1289 76.7427 60.9056C80.644 60.5973 84.0458 59.2367 87.9472 58.939C90.1689 58.7689 92.497 58.6201 94.538 59.5024C96.983 60.5655 98.5882 62.9148 99.8532 65.2535C103.046 71.0346 105.082 77.3822 105.849 83.9418C106.689 91.2023 105.966 98.718 108.113 105.702C110.696 114.09 118.648 121.297 127.003 123.976" fill="#FBCBB9"/>
<path d="M111.577 112.622C116.084 116.938 128.586 116.672 132.349 107.52L127.884 118.575L126.98 123.975L122.856 122.285L114.118 115.747L111.577 112.622Z" fill="#F8BAA4"/>
<path d="M36.751 83.1765C30.2027 77.266 21.4964 70.8452 16.7871 73.4178C16.7871 73.4178 19.3916 70.1117 22.7614 70.5157C24.469 70.6205 26.1271 71.1307 27.5982 72.0039L37.2719 81.7308L36.751 83.1765Z" fill="#F8BAA4"/>
<path d="M37.5996 82.3896C37.5996 82.3896 37.3232 91.4999 41.4053 93.2433C45.4874 94.9867 56.9576 92.1803 56.9576 92.1803L42.4471 88.3852L37.5996 82.3896Z" fill="#F8BAA4"/>
<path d="M39.5991 101.46C46.9873 101.62 56.9267 106.116 60.86 110.028C64.7932 113.94 66.3878 120.659 66.3878 120.659L71.0971 122.179L73.372 121.435L74.2968 118.852L72.4365 115.769L66.324 109.55L60.4773 104.235L49.7405 102.587L44.0001 99.7486L41.1086 98.1328L39.8755 99.6742L39.5991 101.46Z" fill="#F8BAA4"/>
<path d="M29.4264 20.9458C25.642 18.5008 22.8568 21.2116 22.7612 24.3582C22.6655 27.5048 20.3162 28.0044 18.9236 29.3757C16.4361 31.8101 18.7216 36.817 15.373 42.4724C13.3639 45.8741 26.3542 36.9339 26.3542 36.9339L29.4264 20.9458Z" fill="#FF8200"/>
<path d="M29.2025 21.4033L41.7358 30.2372L19.9966 62.8407C18.8832 64.5067 17.3539 65.8529 15.5602 66.7461C13.7665 67.6392 11.7705 68.0482 9.7701 67.9327C7.00619 67.7732 4.08282 67.1992 2.39259 65.6578L1 64.3821L29.2025 21.4033Z" fill="#E64D00"/>
<path d="M23.9189 56.9616L41.7355 30.2368L29.6168 21.7324L6.98462 56.1644L8.37721 57.44C10.0674 58.9814 12.9908 59.5661 15.7547 59.7149C18.7294 59.8851 21.6548 58.8986 23.9189 56.9616V56.9616Z" fill="#FF8200"/>
<path d="M142.12 84.1969C130.213 75.6037 119.475 65.498 110.175 54.134C107.773 51.2 105.222 48.0216 101.575 47.0329C99.1091 46.3632 96.4834 46.8097 93.964 47.2562C87.2307 48.4487 80.583 50.0822 74.0638 52.1462C71.2149 53.0604 68.8018 55.027 69.7053 57.9397C70.7684 61.1289 74.3402 61.1289 76.7427 60.9056C80.644 60.5973 84.0458 59.2367 87.9472 58.939C90.1689 58.7689 92.497 58.6201 94.538 59.5024C96.983 60.5655 98.5882 62.9148 99.8532 65.2535C103.046 71.0346 105.082 77.3822 105.849 83.9418C106.689 91.2023 105.966 98.718 108.113 105.702C110.696 114.09 118.648 121.297 127.003 123.976" stroke="black" stroke-miterlimit="10"/>
<path d="M17.7209 65.126C27.6708 70.9366 36.1925 78.9025 42.6599 88.4385C51.632 90.8091 61.699 93.286 70.6605 95.6459C74.7851 96.709 74.4874 98.6862 74.1153 100.44C73.7316 101.601 73.015 102.622 72.0548 103.379C71.0945 104.135 69.9331 104.592 68.7151 104.692C65.1744 104.652 61.6406 104.371 58.1378 103.853C54.179 103.465 50.2954 102.517 46.6038 101.036C42.892 99.5316 39.7771 96.8499 37.738 93.4029C36.7494 91.6721 36.2161 89.7187 36.1882 87.7256C36.1603 85.7325 36.6387 83.7649 37.5786 82.0071" stroke="black" stroke-miterlimit="10"/>
<path d="M41.6301 97.8994C39.7485 98.4947 39.1426 101.089 39.9292 102.864C40.7159 104.639 42.4061 105.904 44.0219 107.031C51.6652 112.346 59.3935 117.725 67.9829 121.318C68.9823 121.8 70.065 122.085 71.172 122.158C71.7149 122.227 72.2663 122.141 72.762 121.909C73.2577 121.677 73.6775 121.309 73.9726 120.849C74.2676 120.388 74.4258 119.852 74.4287 119.305C74.4316 118.758 74.2792 118.221 73.9891 117.757C73.4831 116.82 72.8217 115.975 72.0331 115.259C68.3018 111.443 64.8788 108.051 61.2007 104.278" stroke="black" stroke-miterlimit="10"/>
<path d="M36.2934 84.9624C30.8719 85.2282 24.9614 83.2297 20.3478 80.3807C18.3067 79.1263 16.2338 77.1916 16.4251 74.7891C16.601 73.7818 17.0749 72.8504 17.7855 72.1151C18.4961 71.3799 19.4108 70.8746 20.4116 70.6645C22.3782 70.1436 24.4405 70.7495 26.4496 71.0684" stroke="black" stroke-miterlimit="10"/>
<path d="M40.1841 32.6289C46.1903 37.6146 52.4091 42.7278 59.8929 44.9708C65.0593 46.5229 70.5233 46.6185 75.9342 46.693C82.4329 46.7851 88.9281 46.8595 95.4198 46.9162" stroke="black" stroke-miterlimit="10"/>
<path d="M107.208 50.7002C117.838 53.8893 130.244 61.1074 136.399 63.6587C140.098 65.1895 142.256 68.6656 139.875 70.4621C136.686 72.8859 132.869 73.2261 126.47 71.589" stroke="black" stroke-miterlimit="10"/>
<path d="M74.0632 118.012C82.3337 120.978 77.8796 96.5601 77.2524 93.1689" stroke="black" stroke-miterlimit="10"/>
<path d="M78.5488 114.462C79.176 117.172 83.4176 118.958 86.1602 118.48C87.5183 118.159 88.7819 117.523 89.8492 116.623C90.9165 115.724 91.7575 114.587 92.3046 113.303C93.4257 110.455 93.9678 107.412 93.8992 104.352C93.8051 98.4071 93.4042 92.471 92.6979 86.5674" stroke="black" stroke-miterlimit="10"/>
<path d="M91.8362 114.164C92.3576 115.569 93.3331 116.76 94.6079 117.547C95.8827 118.335 97.3839 118.674 98.8735 118.512C100.277 118.202 101.595 117.588 102.734 116.711C103.873 115.835 104.805 114.719 105.464 113.441C106.766 110.882 107.612 108.116 107.963 105.267" stroke="black" stroke-miterlimit="10"/>
<path d="M142.969 81.4014L128.224 117.662C127.149 120.315 126.76 123.196 127.095 126.039C127.429 128.883 128.476 131.595 130.138 133.926C131.924 136.456 134.082 138.774 136.388 139.72L137.451 140.145L158.999 88.5663L142.969 81.4014Z" fill="#FFC800" stroke="black" stroke-miterlimit="10"/>
<path d="M29.2025 21.4033L41.7358 30.2372L19.9966 62.8407C18.8832 64.5067 17.3539 65.8529 15.5602 66.7461C13.7665 67.6392 11.7705 68.0482 9.7701 67.9327C7.00619 67.7732 4.08282 67.1992 2.39259 65.6578L1 64.3821L29.2025 21.4033Z" stroke="black" stroke-miterlimit="10"/>
</svg>
