<svg width="160" height="160" viewBox="0 0 160 160" fill="none" xmlns="http://www.w3.org/2000/svg">
<g clip-path="url(#clip0_2103_44557)">
<path d="M118.07 105.95C116.443 100.549 115.298 95.0139 114.65 89.4102H96.3101C97.0065 95.03 98.2456 100.569 100.01 105.95H118.07Z" fill="#DDDDDD"/>
<path d="M37.89 78.8301V65.8301H19.5V78.8301C19.5 80.0201 19.5 81.21 19.58 82.41H37.96C37.91 81.21 37.89 80.0201 37.89 78.8301Z" fill="#DDDDDD"/>
<path d="M114 78.8301V65.8301H44.8901V78.8301C44.8901 80.0201 44.8901 81.21 44.9601 82.41H114.1C114.03 81.21 114 80.0201 114 78.8301Z" fill="#FFC800"/>
<path d="M102.61 51.1505H1.00003V32.1505C0.996088 30.2814 1.36065 28.43 2.07288 26.7019C2.78512 24.9738 3.83104 23.4031 5.15082 22.0796C6.4706 20.7561 8.03835 19.7057 9.76441 18.9887C11.4905 18.2716 13.3409 17.9018 15.21 17.9005H118.21C120.083 17.8926 121.938 18.2558 123.67 18.9694C125.401 19.6829 126.974 20.7327 128.297 22.0577C129.62 23.3828 130.668 24.9571 131.379 26.6895C132.09 28.4218 132.451 30.2779 132.44 32.1505V51.1505H102.61Z" fill="#FF8200" stroke="#FF8200" stroke-miterlimit="10"/>
<path d="M102.61 51.1505H1.00003V32.1505C0.996088 30.2814 1.36065 28.43 2.07288 26.7019C2.78512 24.9738 3.83104 23.4031 5.15082 22.0796C6.4706 20.7561 8.03835 19.7057 9.76441 18.9887C11.4905 18.2716 13.3409 17.9018 15.21 17.9005H118.21C120.083 17.8926 121.938 18.2558 123.67 18.9694C125.401 19.6829 126.974 20.7327 128.297 22.0577C129.62 23.3828 130.668 24.9571 131.379 26.6895C132.09 28.4218 132.451 30.2779 132.44 32.1505V51.1505" stroke="black" stroke-miterlimit="10"/>
<path d="M128.29 22.1501C121.57 15.4401 110.29 3.98019 83.1602 13.4602C56.0302 22.9402 49.7802 -0.759807 18.1602 13.4602C5.82016 18.9902 2.66016 25.3102 2.66016 25.3102L76.2302 46.3102L128.29 22.1501Z" fill="#FF8200" stroke="#FF8200" stroke-miterlimit="10"/>
<path d="M30.13 34.2902L30.63 9.41016C29.3235 9.60803 28.0333 9.90217 26.77 10.2902V27.2902C26.68 34.6902 30.13 34.2902 30.13 34.2902Z" fill="#E64D00" stroke="#E64D00" stroke-miterlimit="10"/>
<path d="M102.02 34.2898L102.52 9.7998C101.23 9.7998 99.9501 9.79978 98.5701 9.89978V27.2798C98.5701 34.6898 102.02 34.2898 102.02 34.2898Z" fill="#E64D00" stroke="#E64D00" stroke-miterlimit="10"/>
<path d="M1.00007 78.9297V143.21C1.00006 146.979 2.49687 150.595 5.16147 153.261C7.82608 155.928 11.4404 157.427 15.2101 157.43H118.21C121.981 157.43 125.598 155.932 128.265 153.265C130.932 150.598 132.43 146.981 132.43 143.21H27.5601C19.1259 134.766 12.4389 124.743 7.88147 113.714C3.32407 102.684 0.985692 90.8639 1.00007 78.9297V78.9297Z" fill="white"/>
<path d="M1.00007 78.9297V86.4297C1.30007 110.92 5.44007 133.04 19.5701 148.54H131.35C132.062 146.852 132.432 145.041 132.44 143.21H27.5601C19.1259 134.766 12.4389 124.743 7.88147 113.714C3.32407 102.684 0.985692 90.8639 1.00007 78.9297V78.9297Z" fill="#DDDDDD"/>
<path d="M1 32.1504V78.8604C1.01432 102.957 10.5627 126.07 27.56 143.15H159C142.005 126.072 132.457 102.964 132.44 78.8704V32.1504C132.444 30.2796 132.079 28.4265 131.365 26.6971C130.652 24.9678 129.604 23.3962 128.282 22.0724C126.96 20.7486 125.39 19.6987 123.662 18.9828C121.933 18.2669 120.081 17.8991 118.21 17.9004H15.21C11.4409 17.9215 7.83268 19.4309 5.1712 22.0999C2.50971 24.7688 1.01049 28.3812 1 32.1504V32.1504Z" stroke="black" stroke-miterlimit="10"/>
<path d="M89.27 89.4102H20.21C20.9112 95.0292 22.1502 100.568 23.91 105.95H92.74C91.0956 100.551 89.9343 95.0154 89.27 89.4102V89.4102Z" fill="#FFC800"/>
<path d="M129.94 127.77C126.315 123.148 123.146 118.185 120.48 112.95H102.63C105.534 118.243 108.993 123.211 112.95 127.77H129.94Z" fill="#DDDDDD"/>
<path d="M104.55 127.77C100.931 123.145 97.7664 118.182 95.1 112.95H77.21C80.1135 118.243 83.5731 123.211 87.53 127.77H104.55Z" fill="#DDDDDD"/>
<path d="M79.2101 127.77C75.5846 123.148 72.4164 118.185 69.7501 112.95H51.8701C54.78 118.244 58.2463 123.212 62.2101 127.77H79.2101Z" fill="#DDDDDD"/>
<path d="M53.79 127.77C50.1645 123.148 46.9963 118.185 44.33 112.95H26.48C29.3871 118.241 32.8464 123.208 36.8 127.77H53.79Z" fill="#DDDDDD"/>
<path d="M102.61 2V35" stroke="black" stroke-linejoin="round"/>
<path d="M30.72 2V35" stroke="black" stroke-linejoin="round"/>
<path d="M1 78.9297V143.21C0.999999 146.979 2.4968 150.595 5.16141 153.261C7.82601 155.928 11.4404 157.427 15.21 157.43H118.21C121.981 157.43 125.598 155.932 128.265 153.265C130.932 150.598 132.43 146.981 132.43 143.21" stroke="black" stroke-miterlimit="10"/>
<path d="M102.61 51.1505H1.00003V32.1505C0.996088 30.2814 1.36065 28.43 2.07288 26.7019C2.78512 24.9738 3.83104 23.4031 5.15082 22.0796C6.4706 20.7561 8.03835 19.7057 9.76441 18.9887C11.4905 18.2716 13.3409 17.9018 15.21 17.9005H118.21C120.083 17.8926 121.938 18.2558 123.67 18.9694C125.401 19.6829 126.974 20.7327 128.297 22.0577C129.62 23.3828 130.668 24.9571 131.379 26.6895C132.09 28.4218 132.451 30.2779 132.44 32.1505V51.1505" stroke="black" stroke-miterlimit="10"/>
</g>
<defs>
<clipPath id="clip0_2103_44557">
<rect width="160" height="160" fill="white"/>
</clipPath>
</defs>
</svg>
